<?xml version="1.0" encoding="utf-8"?>
<!-- Generator: Adobe Illustrator 24.0.0, SVG Export Plug-In . SVG Version: 6.00 Build 0)  -->
<svg version="1.1" id="Layer_1" xmlns="http://www.w3.org/2000/svg" xmlns:xlink="http://www.w3.org/1999/xlink" x="0px" y="0px"
	 width="400px" height="400px" viewBox="0 0 400 400" enable-background="new 0 0 400 400" xml:space="preserve">
<path fill="#FFFFFF" d="M200,0.5C89.82,0.5,0.5,89.82,0.5,200S89.82,399.5,200,399.5S399.5,310.18,399.5,200S310.18,0.5,200,0.5z
	 M91.74,297.43H79.37v-46.3c1.86,0.93,3.97,1.45,6.19,1.45c2.21,0,4.33-0.53,6.19-1.45V297.43z M91.74,244.94
	c-1.86,0.93-3.97,1.45-6.19,1.45c-2.21,0-4.33-0.53-6.19-1.45c-4.58-2.27-7.73-7.01-7.73-12.46c0-5.46,3.15-10.19,7.73-12.46
	c1.86-0.93,3.97-1.45,6.19-1.45c2.21,0,4.33,0.53,6.19,1.45c4.58,2.27,7.73,7.01,7.73,12.46C99.48,237.94,96.32,242.67,91.74,244.94
	z M283.51,223.2c0,45.27-36.7,81.97-81.97,81.97s-81.97-36.7-81.97-81.97v-0.76L200,261.86l83.51-40.94V223.2z M283.51,207.01
	L200,247.94l-80.42-39.42l-27.84-13.66v18.96c-1.86-0.93-3.97-1.45-6.19-1.45c-2.21,0-4.33,0.53-6.19,1.45V188.8l-43.41-21.28
	L200,94.84l164.04,72.69L283.51,207.01z"/>
</svg>
